<svg width="102" height="41" viewBox="0 0 102 41" fill="none" xmlns="http://www.w3.org/2000/svg">
<path fill-rule="evenodd" clip-rule="evenodd" d="M20.1014 40.3232C31.1472 40.3232 40.1014 31.3689 40.1014 20.3232C40.1014 9.27754 31.1472 0.323242 20.1014 0.323242C9.05573 0.323242 0.10144 9.27754 0.10144 20.3232C0.10144 31.3689 9.05573 40.3232 20.1014 40.3232ZM23.1884 15.7758C24.8932 14.0709 24.8932 11.3068 23.1884 9.6019C21.4835 7.89702 18.7194 7.89702 17.0145 9.6019C15.3097 11.3068 15.3097 14.0709 17.0145 15.7758L20.1014 18.8627L23.1884 15.7758ZM24.6489 23.4102C26.3538 25.1151 29.1179 25.1151 30.8228 23.4102C32.5276 21.7053 32.5276 18.9412 30.8228 17.2363C29.1179 15.5315 26.3538 15.5315 24.6489 17.2363L21.562 20.3233L24.6489 23.4102ZM23.1884 31.0446C24.8932 29.3397 24.8932 26.5756 23.1884 24.8707L20.1014 21.7838L17.0145 24.8707C15.3097 26.5756 15.3097 29.3397 17.0145 31.0446C18.7194 32.7495 21.4835 32.7495 23.1884 31.0446ZM9.38007 23.4102C7.67523 21.7053 7.67523 18.9412 9.38007 17.2363C11.085 15.5315 13.8491 15.5315 15.554 17.2363L18.6409 20.3233L15.554 23.4102C13.8491 25.1151 11.085 25.1151 9.38007 23.4102Z" fill="#6373E7"/>
<path d="M60.7756 17.2472C60.679 16.8892 60.5369 16.5739 60.3494 16.3011C60.1619 16.0227 59.9318 15.7869 59.6591 15.5938C59.3864 15.4006 59.0739 15.2557 58.7216 15.1591C58.3693 15.0568 57.983 15.0057 57.5625 15.0057C56.7159 15.0057 55.983 15.2102 55.3636 15.6193C54.75 16.0284 54.2756 16.625 53.9403 17.4091C53.6051 18.1875 53.4375 19.1335 53.4375 20.2472C53.4375 21.3665 53.5994 22.321 53.9233 23.1108C54.2472 23.9006 54.7159 24.5028 55.3295 24.9176C55.9432 25.3324 56.6875 25.5398 57.5625 25.5398C58.3352 25.5398 58.9886 25.4148 59.5227 25.1648C60.0625 24.9091 60.4716 24.5483 60.75 24.0824C61.0284 23.6165 61.1676 23.0682 61.1676 22.4375L61.9517 22.5312H57.7074V19.4545H65.233V21.7642C65.233 23.3267 64.9006 24.6648 64.2358 25.7784C63.5767 26.892 62.6676 27.7472 61.5085 28.3438C60.3551 28.9403 59.0284 29.2386 57.5284 29.2386C55.8636 29.2386 54.4006 28.8778 53.1392 28.1562C51.8778 27.4347 50.8949 26.4062 50.1903 25.071C49.4858 23.7301 49.1335 22.1392 49.1335 20.2983C49.1335 18.8665 49.3466 17.5966 49.7727 16.4886C50.1989 15.375 50.7926 14.4318 51.554 13.6591C52.321 12.8864 53.2074 12.3011 54.2131 11.9034C55.2244 11.5057 56.3125 11.3068 57.4773 11.3068C58.4886 11.3068 59.429 11.4517 60.2983 11.7415C61.1733 12.0312 61.946 12.4403 62.6165 12.9688C63.2926 13.4972 63.8409 14.125 64.2614 14.8523C64.6818 15.5795 64.9432 16.3778 65.0455 17.2472H60.7756ZM71.4098 29.2216C70.5746 29.2216 69.8331 29.0824 69.1854 28.804C68.5433 28.5199 68.0348 28.0937 67.6598 27.5256C67.2905 26.9517 67.1058 26.233 67.1058 25.3693C67.1058 24.642 67.2337 24.0284 67.4893 23.5284C67.745 23.0284 68.0973 22.6222 68.5462 22.3097C68.995 21.9972 69.5121 21.7614 70.0973 21.6023C70.6825 21.4375 71.3075 21.3267 71.9723 21.2699C72.7166 21.2017 73.3161 21.1307 73.7706 21.0568C74.2251 20.9773 74.5547 20.8665 74.7592 20.7244C74.9695 20.5767 75.0746 20.3693 75.0746 20.1023V20.0597C75.0746 19.6222 74.924 19.2841 74.6229 19.0455C74.3217 18.8068 73.9155 18.6875 73.4041 18.6875C72.853 18.6875 72.4098 18.8068 72.0746 19.0455C71.7393 19.2841 71.5263 19.6136 71.4354 20.0341L67.5916 19.8977C67.7053 19.1023 67.9979 18.392 68.4695 17.767C68.9467 17.1364 69.6001 16.642 70.4297 16.2841C71.2649 15.9205 72.2678 15.7386 73.4382 15.7386C74.2734 15.7386 75.0433 15.8381 75.7479 16.0369C76.4524 16.2301 77.0661 16.5142 77.5888 16.8892C78.1115 17.2585 78.5149 17.7131 78.799 18.2528C79.0888 18.7926 79.2337 19.4091 79.2337 20.1023V29H75.3132V27.1761H75.2109C74.978 27.6193 74.6797 27.9943 74.3161 28.3011C73.9581 28.608 73.5348 28.8381 73.0462 28.9915C72.5632 29.1449 72.0178 29.2216 71.4098 29.2216ZM72.6967 26.4943C73.1456 26.4943 73.549 26.4034 73.907 26.2216C74.2706 26.0398 74.5604 25.7898 74.7763 25.4716C74.9922 25.1477 75.1001 24.7727 75.1001 24.3466V23.1023C74.9808 23.1648 74.8359 23.2216 74.6655 23.2727C74.5007 23.3239 74.3189 23.3722 74.12 23.4176C73.9212 23.4631 73.7166 23.5028 73.5064 23.5369C73.2962 23.571 73.0945 23.6023 72.9013 23.6307C72.5092 23.6932 72.174 23.7898 71.8956 23.9205C71.6229 24.0511 71.4126 24.2216 71.2649 24.4318C71.1229 24.6364 71.0518 24.8807 71.0518 25.1648C71.0518 25.5966 71.2053 25.9261 71.5121 26.1534C71.8246 26.3807 72.2195 26.4943 72.6967 26.4943ZM81.782 29V15.9091H85.9496V29H81.782ZM83.87 14.3835C83.2848 14.3835 82.782 14.1903 82.3615 13.804C81.9411 13.4119 81.7308 12.9403 81.7308 12.3892C81.7308 11.8437 81.9411 11.3778 82.3615 10.9915C82.782 10.5994 83.2848 10.4034 83.87 10.4034C84.4609 10.4034 84.9638 10.5994 85.3786 10.9915C85.799 11.3778 86.0092 11.8437 86.0092 12.3892C86.0092 12.9403 85.799 13.4119 85.3786 13.804C84.9638 14.1903 84.4609 14.3835 83.87 14.3835ZM92.2926 29.2216C91.4574 29.2216 90.7159 29.0824 90.0682 28.804C89.4261 28.5199 88.9176 28.0937 88.5426 27.5256C88.1733 26.9517 87.9886 26.233 87.9886 25.3693C87.9886 24.642 88.1165 24.0284 88.3722 23.5284C88.6278 23.0284 88.9801 22.6222 89.429 22.3097C89.8778 21.9972 90.3949 21.7614 90.9801 21.6023C91.5653 21.4375 92.1903 21.3267 92.8551 21.2699C93.5994 21.2017 94.1989 21.1307 94.6534 21.0568C95.108 20.9773 95.4375 20.8665 95.642 20.7244C95.8523 20.5767 95.9574 20.3693 95.9574 20.1023V20.0597C95.9574 19.6222 95.8068 19.2841 95.5057 19.0455C95.2045 18.8068 94.7983 18.6875 94.2869 18.6875C93.7358 18.6875 93.2926 18.8068 92.9574 19.0455C92.6222 19.2841 92.4091 19.6136 92.3182 20.0341L88.4744 19.8977C88.5881 19.1023 88.8807 18.392 89.3523 17.767C89.8295 17.1364 90.483 16.642 91.3125 16.2841C92.1477 15.9205 93.1506 15.7386 94.321 15.7386C95.1563 15.7386 95.9261 15.8381 96.6307 16.0369C97.3352 16.2301 97.9489 16.5142 98.4716 16.8892C98.9943 17.2585 99.3977 17.7131 99.6818 18.2528C99.9716 18.7926 100.116 19.4091 100.116 20.1023V29H96.196V27.1761H96.0938C95.8608 27.6193 95.5625 27.9943 95.1989 28.3011C94.8409 28.608 94.4176 28.8381 93.929 28.9915C93.446 29.1449 92.9006 29.2216 92.2926 29.2216ZM93.5795 26.4943C94.0284 26.4943 94.4318 26.4034 94.7898 26.2216C95.1534 26.0398 95.4432 25.7898 95.6591 25.4716C95.875 25.1477 95.983 24.7727 95.983 24.3466V23.1023C95.8636 23.1648 95.7188 23.2216 95.5483 23.2727C95.3835 23.3239 95.2017 23.3722 95.0028 23.4176C94.804 23.4631 94.5994 23.5028 94.3892 23.5369C94.179 23.571 93.9773 23.6023 93.7841 23.6307C93.392 23.6932 93.0568 23.7898 92.7784 23.9205C92.5057 24.0511 92.2955 24.2216 92.1477 24.4318C92.0057 24.6364 91.9347 24.8807 91.9347 25.1648C91.9347 25.5966 92.0881 25.9261 92.3949 26.1534C92.7074 26.3807 93.1023 26.4943 93.5795 26.4943Z" fill="#6373E7"/>
</svg>
