<svg width="500" height="500" viewBox="0 0 500 500" fill="none" xmlns="http://www.w3.org/2000/svg">
<path d="M463.81 137C476.38 137 486.57 126.81 486.57 114.24C486.57 101.67 476.38 91.48 463.81 91.48C451.24 91.48 441.05 101.67 441.05 114.24C441.05 126.81 451.24 137 463.81 137Z" fill="#FAFAFA"/>
<path d="M385.49 150.94C377.66 149.94 373 148.86 373 148.86C373 148.86 377.18 147.26 382.74 145.43C382.894 144.549 383.278 143.724 383.853 143.038C384.428 142.353 385.174 141.832 386.016 141.527C386.857 141.223 387.764 141.146 388.644 141.305C389.525 141.463 390.348 141.851 391.03 142.43C391.4 141.142 392.127 139.985 393.127 139.093C394.128 138.202 395.36 137.612 396.682 137.392C398.004 137.172 399.361 137.332 400.596 137.852C401.831 138.372 402.893 139.231 403.66 140.33H403.77C403.532 139.01 403.562 137.655 403.858 136.346C404.155 135.038 404.711 133.802 405.495 132.713C406.279 131.624 407.274 130.704 408.421 130.008C409.568 129.312 410.843 128.853 412.17 128.66C413.498 128.466 414.851 128.542 416.149 128.883C417.447 129.223 418.663 129.821 419.724 130.642C420.786 131.462 421.672 132.487 422.329 133.657C422.987 134.827 423.402 136.117 423.55 137.45C424.584 137.242 425.651 137.267 426.674 137.523C427.697 137.779 428.65 138.26 429.464 138.93C430.278 139.6 430.932 140.443 431.379 141.398C431.827 142.353 432.056 143.396 432.05 144.45C432.05 144.45 432.05 144.53 432.05 144.58C435.99 145.66 446.77 148.66 446.05 148.82C427.29 152.56 408.069 153.416 389.05 151.36C388.657 151.457 388.254 151.507 387.85 151.51C387.029 151.513 386.219 151.317 385.49 150.94Z" fill="#F5F5F5"/>
<path d="M65.23 384.71C41.34 348.71 30.09 288.3 68.83 257.21C106.19 227.21 165.6 271.69 200.01 240.59C241.42 203.16 175.72 148.49 180.65 104.59C186.12 55.88 253.77 30.93 297.65 24.89C342.81 18.71 384.82 43 404.88 80.51C430.15 127.73 428.35 184.23 416.57 233.86C403.04 290.86 365.89 340.32 326.57 385.06C281.63 436.19 214.57 455.46 146.35 443.44C109.46 436.93 84.19 413.25 65.23 384.71Z" fill="#109E39"/>
<path opacity="0.7" d="M65.23 384.71C41.34 348.71 30.09 288.3 68.83 257.21C106.19 227.21 165.6 271.69 200.01 240.59C241.42 203.16 175.72 148.49 180.65 104.59C186.12 55.88 253.77 30.93 297.65 24.89C342.81 18.71 384.82 43 404.88 80.51C430.15 127.73 428.35 184.23 416.57 233.86C403.04 290.86 365.89 340.32 326.57 385.06C281.63 436.19 214.57 455.46 146.35 443.44C109.46 436.93 84.19 413.25 65.23 384.71Z" fill="white"/>
<path d="M415.36 345.67V325.79H456.06" stroke="#263238" stroke-linecap="round" stroke-linejoin="round"/>
<path d="M379.19 306.99V345.67H406.86" stroke="#263238" stroke-linecap="round" stroke-linejoin="round"/>
<path d="M379.19 296.7V301.31" stroke="#263238" stroke-linecap="round" stroke-linejoin="round"/>
<path d="M305.49 351.96L324.69 366.95V281.49H379.19V289.25" stroke="#263238" stroke-linecap="round" stroke-linejoin="round"/>
<path d="M236.01 226.32L240.71 224.69V286.4L273.91 302.77V364.04L297.43 345.67L300.85 348.34" stroke="#263238" stroke-linecap="round" stroke-linejoin="round"/>
<path d="M225.55 229.93L230.44 228.24" stroke="#263238" stroke-linecap="round" stroke-linejoin="round"/>
<path d="M159.5 304.9H197.56V239.59L219.13 232.14" stroke="#263238" stroke-linecap="round" stroke-linejoin="round"/>
<path d="M465.53 325.79H469.86V431.14H420.07H415.36H379.19H365.56H324.69H273.91H270.18H240.71H230.76H201H197.56H146.5V304.9H153.26" stroke="#263238" stroke-linecap="round" stroke-linejoin="round"/>
<path d="M400.6 392.12V431.14H442.61V368.02" stroke="#263238" stroke-linecap="round" stroke-linejoin="round"/>
<path d="M442.61 360.9H400.6V383.61" stroke="#263238" stroke-linecap="round" stroke-linejoin="round"/>
<path d="M60.01 317.45V285.35L113.38 272.58V278.08" stroke="#263238" stroke-linecap="round" stroke-linejoin="round"/>
<path d="M60.01 332.08V323.84" stroke="#263238" stroke-linecap="round" stroke-linejoin="round"/>
<path d="M113.38 284.73V431.14H70.16H60.01H25.87V340.69H60.01" stroke="#263238" stroke-linecap="round" stroke-linejoin="round"/>
<path d="M104.22 364.04V351.86H99.51" stroke="#263238" stroke-linecap="round" stroke-linejoin="round"/>
<path d="M92.32 351.86H69.63V431.14H104.22V373.14" stroke="#263238" stroke-linecap="round" stroke-linejoin="round"/>
<path d="M66.68 317.4V324.93C66.68 325.206 66.9038 325.43 67.18 325.43H75.28C75.5561 325.43 75.78 325.206 75.78 324.93V317.4C75.78 317.124 75.5561 316.9 75.28 316.9H67.18C66.9038 316.9 66.68 317.124 66.68 317.4Z" stroke="#263238" stroke-linecap="round" stroke-linejoin="round"/>
<path d="M81.02 329.79V337.32C81.02 337.596 81.2438 337.82 81.52 337.82H89.62C89.8961 337.82 90.12 337.596 90.12 337.32V329.79C90.12 329.514 89.8961 329.29 89.62 329.29H81.52C81.2438 329.29 81.02 329.514 81.02 329.79Z" stroke="#263238" stroke-linecap="round" stroke-linejoin="round"/>
<path d="M81.02 305V312.53C81.02 312.806 81.2438 313.03 81.52 313.03H89.62C89.8961 313.03 90.12 312.806 90.12 312.53V305C90.12 304.724 89.8961 304.5 89.62 304.5H81.52C81.2438 304.5 81.02 304.724 81.02 305Z" stroke="#263238" stroke-linecap="round" stroke-linejoin="round"/>
<path d="M81.02 292.61V300.14C81.02 300.416 81.2438 300.64 81.52 300.64H89.62C89.8961 300.64 90.12 300.416 90.12 300.14V292.61C90.12 292.334 89.8961 292.11 89.62 292.11H81.52C81.2438 292.11 81.02 292.334 81.02 292.61Z" stroke="#263238" stroke-linecap="round" stroke-linejoin="round"/>
<path d="M95.36 329.78V337.31C95.36 337.586 95.5838 337.81 95.86 337.81H103.96C104.236 337.81 104.46 337.586 104.46 337.31V329.78C104.46 329.504 104.236 329.28 103.96 329.28H95.86C95.5838 329.28 95.36 329.504 95.36 329.78Z" stroke="#263238" stroke-linecap="round" stroke-linejoin="round"/>
<path d="M95.36 304.99V312.52C95.36 312.796 95.5838 313.02 95.86 313.02H103.96C104.236 313.02 104.46 312.796 104.46 312.52V304.99C104.46 304.714 104.236 304.49 103.96 304.49H95.86C95.5838 304.49 95.36 304.714 95.36 304.99Z" stroke="#263238" stroke-linecap="round" stroke-linejoin="round"/>
<path d="M430.38 417.95V423.77C430.38 424.046 430.604 424.27 430.88 424.27H437.16C437.436 424.27 437.66 424.046 437.66 423.77V417.95C437.66 417.674 437.436 417.45 437.16 417.45H430.88C430.604 417.45 430.38 417.674 430.38 417.95Z" stroke="#263238" stroke-linecap="round" stroke-linejoin="round"/>
<path d="M430.38 408.05V413.87C430.38 414.146 430.604 414.37 430.88 414.37H437.16C437.436 414.37 437.66 414.146 437.66 413.87V408.05C437.66 407.774 437.436 407.55 437.16 407.55H430.88C430.604 407.55 430.38 407.774 430.38 408.05Z" stroke="#263238" stroke-linecap="round" stroke-linejoin="round"/>
<path d="M430.38 378.33V384.15C430.38 384.426 430.604 384.65 430.88 384.65H437.16C437.436 384.65 437.66 384.426 437.66 384.15V378.33C437.66 378.054 437.436 377.83 437.16 377.83H430.88C430.604 377.83 430.38 378.054 430.38 378.33Z" stroke="#263238" stroke-linecap="round" stroke-linejoin="round"/>
<path d="M407.45 417.96V423.78C407.45 424.056 407.674 424.28 407.95 424.28H414.23C414.506 424.28 414.73 424.056 414.73 423.78V417.96C414.73 417.684 414.506 417.46 414.23 417.46H407.95C407.674 417.46 407.45 417.684 407.45 417.96Z" stroke="#263238" stroke-linecap="round" stroke-linejoin="round"/>
<path d="M407.45 398.14V403.96C407.45 404.236 407.674 404.46 407.95 404.46H414.23C414.506 404.46 414.73 404.236 414.73 403.96V398.14C414.73 397.864 414.506 397.64 414.23 397.64H407.95C407.674 397.64 407.45 397.864 407.45 398.14Z" stroke="#263238" stroke-linecap="round" stroke-linejoin="round"/>
<path d="M430.38 388.23V394.05C430.38 394.326 430.604 394.55 430.88 394.55H437.16C437.436 394.55 437.66 394.326 437.66 394.05V388.23C437.66 387.954 437.436 387.73 437.16 387.73H430.88C430.604 387.73 430.38 387.954 430.38 388.23Z" stroke="#263238" stroke-linecap="round" stroke-linejoin="round"/>
<path d="M418.91 408.05V413.87C418.91 414.146 419.134 414.37 419.41 414.37H425.69C425.966 414.37 426.19 414.146 426.19 413.87V408.05C426.19 407.774 425.966 407.55 425.69 407.55H419.41C419.134 407.55 418.91 407.774 418.91 408.05Z" stroke="#263238" stroke-linecap="round" stroke-linejoin="round"/>
<path d="M418.91 378.33V384.15C418.91 384.426 419.134 384.65 419.41 384.65H425.69C425.966 384.65 426.19 384.426 426.19 384.15V378.33C426.19 378.054 425.966 377.83 425.69 377.83H419.41C419.134 377.83 418.91 378.054 418.91 378.33Z" stroke="#263238" stroke-linecap="round" stroke-linejoin="round"/>
<path d="M407.45 368.42V374.24C407.45 374.516 407.674 374.74 407.95 374.74H414.23C414.506 374.74 414.73 374.516 414.73 374.24V368.42C414.73 368.144 414.506 367.92 414.23 367.92H407.95C407.674 367.92 407.45 368.144 407.45 368.42Z" stroke="#263238" stroke-linecap="round" stroke-linejoin="round"/>
<path d="M64.34 97.07C64.34 97.07 63.71 76.89 83.34 74.21C103.54 71.46 106.58 93.26 106.58 93.26" stroke="#263238" stroke-linecap="round" stroke-linejoin="round"/>
<path d="M54.82 98.51C56.0869 98.0701 57.388 97.7356 58.71 97.51" stroke="#263238" stroke-linecap="round" stroke-linejoin="round"/>
<path d="M42.25 118.64C42.25 107.78 47.05 102.36 52.18 99.64" stroke="#263238" stroke-linecap="round" stroke-linejoin="round"/>
<path d="M103.59 138.59C88.47 138.59 47.79 145.15 42.76 123.38" stroke="#263238" stroke-linecap="round" stroke-linejoin="round"/>
<path d="M113.28 138.88L110.55 138.77" stroke="#263238" stroke-linecap="round" stroke-linejoin="round"/>
<path d="M140.54 113.8C146.25 113.65 155.78 115.04 155.78 126.02C155.78 139.8 133.17 139.66 115.92 139.02" stroke="#263238" stroke-linecap="round" stroke-linejoin="round"/>
<path d="M111.53 91.75C120.97 89.41 140.42 87.63 136.35 114.21" stroke="#263238" stroke-linecap="round" stroke-linejoin="round"/>
<path d="M357.5 114.5C357.5 114.5 357.12 102.37 368.96 100.76C381.1 99.1 382.96 112.21 382.96 112.21" stroke="#263238" stroke-linecap="round" stroke-linejoin="round"/>
<path d="M351.77 115.37C352.532 115.101 353.315 114.894 354.11 114.75" stroke="#263238" stroke-linecap="round" stroke-linejoin="round"/>
<path d="M344.21 127.48C344.21 120.95 347.1 117.69 350.21 116.07" stroke="#263238" stroke-linecap="round" stroke-linejoin="round"/>
<path d="M381.1 139.48C372.01 139.48 347.54 143.42 344.52 130.33" stroke="#263238" stroke-linecap="round" stroke-linejoin="round"/>
<path d="M386.93 139.65L385.29 139.58" stroke="#263238" stroke-linecap="round" stroke-linejoin="round"/>
<path d="M403.32 124.57C406.76 124.47 412.49 125.31 412.49 131.92C412.49 140.2 398.89 140.12 388.49 139.71" stroke="#263238" stroke-linecap="round" stroke-linejoin="round"/>
<path d="M385.88 111.31C391.55 109.9 403.25 108.83 400.8 124.81" stroke="#263238" stroke-linecap="round" stroke-linejoin="round"/>
<path d="M22.43 431.14H477.87" stroke="#263238" stroke-linecap="round" stroke-linejoin="round"/>
<path d="M272.951 433.472C242.735 433.472 218.224 345.627 218.224 237.286C218.224 128.945 242.735 41 272.951 41H371.293C401.509 41 426 128.846 426 237.206C426 345.567 401.509 433.393 371.293 433.393L272.951 433.472Z" fill="#109E39"/>
<mask id="mask0_1_2" style="mask-type:luminance" maskUnits="userSpaceOnUse" x="218" y="41" width="208" height="393">
<path d="M272.951 433.472C242.735 433.472 218.224 345.627 218.224 237.286C218.224 128.945 242.735 41 272.951 41H371.293C401.509 41 426 128.846 426 237.206C426 345.567 401.509 433.393 371.293 433.393L272.951 433.472Z" fill="white"/>
</mask>
<g mask="url(#mask0_1_2)">
<g opacity="0.2">
<path d="M372.267 41C342.051 41 317.56 128.846 317.56 237.206C317.56 345.567 342.051 433.393 372.267 433.393C402.483 433.393 426.994 345.547 426.994 237.206C426.994 128.865 402.483 41 372.267 41Z" fill="black"/>
</g>
</g>
<path d="M272.951 433.472C242.735 433.472 218.224 345.627 218.224 237.286C218.224 128.945 242.735 41 272.951 41H371.293C401.509 41 426 128.846 426 237.206C426 345.567 401.509 433.393 371.293 433.393L272.951 433.472Z" stroke="#263238" stroke-linecap="round" stroke-linejoin="round"/>
<path d="M371.293 433.492C401.507 433.492 426 345.648 426 237.286C426 128.924 401.507 41.0795 371.293 41.0795C341.079 41.0795 316.586 128.924 316.586 237.286C316.586 345.648 341.079 433.492 371.293 433.492Z" stroke="#263238" stroke-linecap="round" stroke-linejoin="round"/>
<path d="M371.293 41C341.077 41 316.566 128.846 316.566 237.206C316.566 345.567 341.077 433.393 371.293 433.393C401.509 433.393 426 345.547 426 237.206C426 128.865 401.509 41 371.293 41ZM371.174 424.666C363.858 424.666 351.593 411.427 341.136 374.153C331.058 338.212 325.511 290.264 325.511 239.155C325.511 125.844 352.567 53.6431 371.233 53.6431C378.569 53.6431 390.814 66.8627 401.27 104.136C411.349 140.077 416.895 188.026 416.895 239.155C416.736 352.366 389.701 424.666 371.174 424.666Z" stroke="#263238" stroke-linecap="round" stroke-linejoin="round"/>
<g opacity="0.7">
<path d="M278.418 92.1488C278.418 93.6036 277.986 95.0256 277.178 96.2352C276.37 97.4448 275.221 98.3875 273.877 98.9442C272.533 99.5009 271.054 99.6466 269.628 99.3628C268.201 99.079 266.89 98.3784 265.862 97.3498C264.833 96.3211 264.132 95.0105 263.849 93.5838C263.565 92.157 263.71 90.6781 264.267 89.3341C264.824 87.9901 265.767 86.8414 266.976 86.0332C268.186 85.225 269.608 84.7936 271.063 84.7936C273.013 84.7936 274.884 85.5685 276.263 86.9479C277.643 88.3273 278.418 90.1981 278.418 92.1488Z" fill="white"/>
<path d="M311.874 92.1488C311.874 93.6036 311.443 95.0256 310.635 96.2352C309.826 97.4448 308.678 98.3875 307.334 98.9442C305.99 99.5009 304.511 99.6466 303.084 99.3628C301.657 99.079 300.347 98.3784 299.318 97.3498C298.289 96.3211 297.589 95.0105 297.305 93.5838C297.021 92.157 297.167 90.6781 297.724 89.3341C298.28 87.9901 299.223 86.8414 300.433 86.0332C301.642 85.225 303.064 84.7936 304.519 84.7936C306.47 84.7936 308.341 85.5685 309.72 86.9479C311.099 88.3273 311.874 90.1981 311.874 92.1488Z" fill="white"/>
<path d="M257.266 114.89C257.27 116.351 256.841 117.779 256.032 118.995C255.223 120.211 254.071 121.16 252.723 121.72C251.374 122.281 249.89 122.429 248.457 122.145C247.025 121.861 245.709 121.158 244.676 120.125C243.644 119.093 242.941 117.777 242.657 116.344C242.373 114.912 242.521 113.427 243.081 112.079C243.642 110.73 244.59 109.579 245.806 108.77C247.022 107.961 248.451 107.531 249.911 107.535C251.862 107.535 253.733 108.31 255.112 109.69C256.492 111.069 257.266 112.94 257.266 114.89Z" fill="white"/>
<path d="M286.31 114.89C286.31 116.345 285.878 117.767 285.07 118.977C284.262 120.186 283.113 121.129 281.769 121.686C280.425 122.243 278.946 122.388 277.52 122.104C276.093 121.821 274.782 121.12 273.754 120.091C272.725 119.063 272.024 117.752 271.741 116.325C271.457 114.899 271.602 113.42 272.159 112.076C272.716 110.732 273.659 109.583 274.868 108.775C276.078 107.967 277.5 107.535 278.955 107.535C280.905 107.535 282.776 108.31 284.155 109.69C285.535 111.069 286.31 112.94 286.31 114.89Z" fill="white"/>
<path d="M315.353 114.89C315.353 116.345 314.922 117.767 314.114 118.977C313.305 120.186 312.157 121.129 310.813 121.686C309.469 122.243 307.99 122.388 306.563 122.104C305.136 121.821 303.826 121.12 302.797 120.091C301.768 119.063 301.068 117.752 300.784 116.325C300.5 114.899 300.646 113.42 301.202 112.076C301.759 110.732 302.702 109.583 303.911 108.775C305.121 107.967 306.543 107.535 307.998 107.535C309.949 107.535 311.819 108.31 313.199 109.69C314.578 111.069 315.353 112.94 315.353 114.89Z" fill="white"/>
<path d="M274.005 69.4072C274.009 70.8667 273.579 72.2945 272.771 73.51C271.963 74.7254 270.813 75.6738 269.466 76.2351C268.118 76.7963 266.635 76.9452 265.203 76.6629C263.771 76.3806 262.455 75.6798 261.422 74.6491C260.388 73.6185 259.684 72.3044 259.398 70.8732C259.111 69.442 259.256 67.9581 259.814 66.6093C260.372 65.2606 261.317 64.1075 262.53 63.2962C263.743 62.485 265.17 62.0519 266.63 62.0519C268.582 62.0519 270.455 62.8262 271.838 64.205C273.22 65.5838 273.999 67.4546 274.005 69.4072Z" fill="white"/>
<path d="M303.048 69.4072C303.052 70.8675 302.622 72.2962 301.813 73.5121C301.004 74.7279 299.853 75.6763 298.504 76.237C297.156 76.7976 295.671 76.9454 294.239 76.6614C292.806 76.3775 291.49 75.6747 290.458 74.6421C289.425 73.6094 288.722 72.2935 288.439 70.861C288.155 69.4285 288.302 67.944 288.863 66.5955C289.424 65.2471 290.372 64.0954 291.588 63.2866C292.804 62.4777 294.232 62.048 295.693 62.0519C297.643 62.0519 299.514 62.8269 300.894 64.2062C302.273 65.5856 303.048 67.4564 303.048 69.4072Z" fill="white"/>
<path d="M332.091 69.4072C332.091 70.8619 331.66 72.284 330.852 73.4936C330.043 74.7031 328.895 75.6459 327.551 76.2026C326.207 76.7593 324.728 76.9049 323.301 76.6211C321.874 76.3373 320.564 75.6368 319.535 74.6081C318.506 73.5795 317.806 72.2689 317.522 70.8421C317.238 69.4154 317.384 67.9364 317.941 66.5925C318.497 65.2485 319.44 64.0997 320.65 63.2915C321.859 62.4833 323.281 62.0519 324.736 62.0519C326.687 62.0519 328.558 62.8269 329.937 64.2062C331.316 65.5856 332.091 67.4564 332.091 69.4072Z" fill="white"/>
</g>
<g opacity="0.7">
<path d="M296.229 382.403C296.245 383.854 296.69 385.269 297.507 386.468C298.325 387.667 299.479 388.597 300.825 389.142C302.17 389.686 303.646 389.821 305.068 389.528C306.489 389.235 307.792 388.528 308.813 387.497C309.834 386.465 310.526 385.154 310.804 383.73C311.081 382.305 310.931 380.83 310.372 379.491C309.813 378.152 308.87 377.007 307.663 376.203C306.455 375.398 305.036 374.969 303.585 374.968C302.611 374.966 301.647 375.157 300.748 375.53C299.849 375.904 299.034 376.453 298.349 377.145C297.665 377.837 297.125 378.658 296.761 379.561C296.397 380.464 296.216 381.43 296.229 382.403Z" fill="white"/>
<path d="M264.96 382.403C264.956 383.864 265.385 385.292 266.194 386.508C267.003 387.724 268.155 388.672 269.503 389.233C270.852 389.794 272.336 389.941 273.769 389.657C275.201 389.374 276.517 388.671 277.55 387.638C278.582 386.605 279.285 385.289 279.569 383.857C279.853 382.424 279.705 380.94 279.145 379.592C278.584 378.243 277.636 377.091 276.42 376.283C275.204 375.474 273.775 375.044 272.315 375.048C270.364 375.048 268.493 375.823 267.114 377.202C265.735 378.582 264.96 380.452 264.96 382.403Z" fill="white"/>
<path d="M317.381 405.145C317.381 406.6 317.812 408.022 318.62 409.231C319.429 410.441 320.577 411.384 321.921 411.94C323.265 412.497 324.744 412.643 326.171 412.359C327.598 412.075 328.908 411.374 329.937 410.346C330.966 409.317 331.666 408.007 331.95 406.58C332.234 405.153 332.088 403.674 331.531 402.33C330.975 400.986 330.032 399.837 328.822 399.029C327.613 398.221 326.191 397.79 324.736 397.79C323.769 397.787 322.812 397.975 321.918 398.344C321.025 398.713 320.213 399.255 319.529 399.938C318.846 400.622 318.304 401.433 317.935 402.327C317.567 403.221 317.378 404.178 317.381 405.145Z" fill="white"/>
<path d="M288.318 405.145C288.314 406.604 288.743 408.032 289.551 409.248C290.359 410.463 291.509 411.411 292.857 411.973C294.204 412.534 295.687 412.683 297.119 412.401C298.551 412.118 299.867 411.417 300.901 410.387C301.934 409.356 302.638 408.042 302.925 406.611C303.211 405.18 303.066 403.696 302.508 402.347C301.951 400.998 301.005 399.845 299.792 399.034C298.579 398.223 297.152 397.79 295.693 397.79C294.725 397.787 293.767 397.975 292.872 398.344C291.977 398.712 291.164 399.254 290.479 399.937C289.794 400.62 289.25 401.432 288.879 402.325C288.508 403.219 288.318 404.177 288.318 405.145Z" fill="white"/>
<path d="M259.274 405.145C259.27 406.605 259.7 408.034 260.509 409.25C261.318 410.466 262.469 411.414 263.818 411.975C265.166 412.535 266.651 412.683 268.083 412.399C269.516 412.115 270.832 411.412 271.864 410.38C272.897 409.347 273.6 408.031 273.884 406.599C274.168 405.166 274.02 403.682 273.459 402.333C272.899 400.985 271.95 399.833 270.734 399.024C269.519 398.215 268.09 397.786 266.63 397.79C264.679 397.79 262.808 398.564 261.429 399.944C260.049 401.323 259.274 403.194 259.274 405.145Z" fill="white"/>
<path d="M300.643 359.661C300.643 361.116 301.074 362.538 301.882 363.748C302.69 364.957 303.839 365.9 305.183 366.457C306.527 367.014 308.006 367.159 309.433 366.875C310.86 366.592 312.17 365.891 313.199 364.862C314.227 363.834 314.928 362.523 315.212 361.096C315.496 359.67 315.35 358.191 314.793 356.847C314.237 355.503 313.294 354.354 312.084 353.546C310.875 352.738 309.453 352.306 307.998 352.306C306.047 352.306 304.176 353.081 302.797 354.461C301.418 355.84 300.643 357.711 300.643 359.661Z" fill="white"/>
<path d="M271.599 359.662C271.599 361.116 272.031 362.538 272.839 363.748C273.647 364.957 274.796 365.9 276.14 366.457C277.484 367.014 278.963 367.159 280.39 366.875C281.816 366.592 283.127 365.891 284.156 364.862C285.184 363.834 285.885 362.523 286.168 361.096C286.452 359.67 286.307 358.191 285.75 356.847C285.193 355.503 284.251 354.354 283.041 353.546C281.831 352.738 280.409 352.306 278.955 352.306C277.988 352.304 277.03 352.492 276.137 352.861C275.243 353.23 274.431 353.771 273.748 354.455C273.064 355.138 272.523 355.95 272.154 356.844C271.785 357.737 271.597 358.695 271.599 359.662Z" fill="white"/>
<path d="M242.536 359.661C242.532 361.121 242.961 362.549 243.769 363.764C244.577 364.98 245.728 365.928 247.075 366.489C248.422 367.051 249.906 367.2 251.338 366.917C252.77 366.635 254.086 365.934 255.119 364.903C256.153 363.873 256.857 362.559 257.143 361.128C257.429 359.696 257.284 358.212 256.727 356.864C256.169 355.515 255.224 354.362 254.011 353.551C252.797 352.739 251.371 352.306 249.911 352.306C248.944 352.304 247.985 352.492 247.09 352.86C246.196 353.229 245.383 353.77 244.697 354.454C244.012 355.137 243.469 355.948 243.098 356.842C242.727 357.736 242.536 358.694 242.536 359.661Z" fill="white"/>
</g>
<path d="M367.575 262.512C381.508 262.512 392.802 251.218 392.802 237.286C392.802 223.354 381.508 212.059 367.575 212.059C353.643 212.059 342.349 223.354 342.349 237.286C342.349 251.218 353.643 262.512 367.575 262.512Z" fill="#999999"/>
<path d="M416.736 237.286C416.732 226.618 413.26 216.24 406.842 207.719C400.424 199.197 391.41 192.993 381.158 190.042C370.906 187.091 359.973 187.554 350.007 191.361C340.041 195.167 331.583 202.111 325.909 211.145" stroke="#263238" stroke-linecap="round" stroke-linejoin="round"/>
<path d="M322.37 136.42H271.44V338.192H322.37C335.024 338.192 347.159 333.166 356.106 324.218C365.054 315.271 370.08 303.136 370.08 290.482V184.129C370.08 171.476 365.054 159.341 356.106 150.393C347.159 141.446 335.024 136.42 322.37 136.42Z" fill="#109E39" stroke="#263238" stroke-linecap="round" stroke-linejoin="round"/>
<path d="M313.902 136.36H228.979C205.242 136.36 186 155.602 186 179.338V295.233C186 318.97 205.242 338.212 228.979 338.212H313.902C337.638 338.212 356.88 318.97 356.88 295.233V179.338C356.88 155.602 337.638 136.36 313.902 136.36Z" fill="#999999" stroke="#263238" stroke-linecap="round" stroke-linejoin="round"/>
<path d="M314.896 155.782H227.985C215.524 155.782 205.422 165.883 205.422 178.344V296.227C205.422 308.688 215.524 318.79 227.985 318.79H314.896C327.357 318.79 337.459 308.688 337.459 296.227V178.344C337.459 165.883 327.357 155.782 314.896 155.782Z" fill="#263238" stroke="#263238" stroke-linecap="round" stroke-linejoin="round"/>
<path d="M362.387 257.006C359.345 257.006 356.88 248.18 356.88 237.286C356.88 226.392 359.345 217.546 362.387 217.546H372.327C375.368 217.546 377.833 226.392 377.833 237.286C377.833 248.18 375.368 257.006 372.327 257.006H362.387Z" fill="#757575" stroke="#263238" stroke-linecap="round" stroke-linejoin="round"/>
<path d="M372.267 257.006C375.308 257.006 377.773 248.177 377.773 237.286C377.773 226.395 375.308 217.566 372.267 217.566C369.226 217.566 366.76 226.395 366.76 237.286C366.76 248.177 369.226 257.006 372.267 257.006Z" fill="#109E39" stroke="#263238" stroke-linecap="round" stroke-linejoin="round"/>
<path d="M223.094 186.932H218.105V183.493C222.2 183.493 223.671 182.599 224.764 179.517H228.044V210.469H223.174L223.094 186.932Z" fill="white"/>
<path d="M233.61 203.193V186.932C233.61 181.982 236.234 179.16 241.005 179.16C245.776 179.16 248.38 181.982 248.38 186.932V203.193C248.38 208.163 245.776 210.986 241.005 210.986C236.234 210.986 233.61 208.163 233.61 203.193ZM243.55 203.511V186.634C243.55 184.408 242.576 183.573 241.045 183.573C239.514 183.573 238.52 184.408 238.52 186.634V203.511C238.52 205.718 239.495 206.553 241.045 206.553C242.596 206.553 243.51 205.718 243.51 203.511H243.55Z" fill="white"/>
<path d="M251.641 189.02H256.332V193.691H251.641V189.02ZM251.641 205.857H256.332V210.549H251.641V205.857Z" fill="white"/>
<path d="M259.592 203.193V186.932C259.592 181.982 262.216 179.16 266.987 179.16C271.758 179.16 274.362 181.982 274.362 186.932V203.193C274.362 208.163 271.758 210.986 266.987 210.986C262.216 210.986 259.592 208.163 259.592 203.193ZM269.532 203.511V186.634C269.532 184.408 268.578 183.573 267.027 183.573C265.477 183.573 264.502 184.408 264.502 186.634V203.511C264.502 205.718 265.477 206.553 267.027 206.553C268.578 206.553 269.492 205.718 269.492 203.511H269.532Z" fill="white"/>
<path d="M277.503 203.193V200.768H282.095V203.551C282.095 205.758 283.069 206.553 284.62 206.553C286.171 206.553 287.145 205.758 287.145 203.551V196.613C287.145 194.407 286.171 193.572 284.62 193.572C283.069 193.572 282.095 194.407 282.095 196.613V196.872H277.503L278.378 179.597H291.2V184.01H282.712L282.314 191.405H282.413C282.833 190.675 283.448 190.076 284.189 189.676C284.93 189.276 285.767 189.09 286.608 189.139C290.186 189.139 291.995 191.663 291.995 196.216V203.193C291.995 208.163 289.53 210.986 284.739 210.986C279.948 210.986 277.503 208.163 277.503 203.193Z" fill="white"/>
<path d="M219.655 232.634H216.594V230.646C219.059 230.646 219.934 230.11 220.57 228.301H222.558V246.868H219.655V232.634Z" fill="white"/>
<path d="M225.838 242.454V240.824C225.751 240.065 225.894 239.298 226.248 238.621C226.603 237.944 227.152 237.389 227.826 237.028C227.204 236.658 226.703 236.115 226.386 235.465C226.068 234.816 225.946 234.087 226.036 233.37V232.614C226.036 231.433 226.506 230.301 227.341 229.466C228.176 228.631 229.308 228.161 230.489 228.161C231.67 228.161 232.803 228.631 233.638 229.466C234.473 230.301 234.942 231.433 234.942 232.614V233.37C235.025 234.089 234.899 234.817 234.578 235.466C234.257 236.115 233.755 236.657 233.133 237.028C233.805 237.391 234.353 237.946 234.707 238.623C235.061 239.299 235.205 240.066 235.121 240.824V242.454C235.121 243.662 234.641 244.82 233.788 245.673C232.934 246.527 231.776 247.007 230.569 247.007C229.361 247.007 228.204 246.527 227.35 245.673C226.496 244.82 226.016 243.662 226.016 242.454H225.838ZM232.04 242.295V240.526C232.04 239.115 231.483 238.439 230.39 238.439C229.297 238.439 228.74 239.115 228.74 240.526V242.295C228.74 243.707 229.297 244.383 230.39 244.383C231.483 244.383 232.02 243.767 232.02 242.295H232.04ZM231.921 233.926V232.475C231.921 231.243 231.384 230.607 230.39 230.607C229.396 230.607 228.839 231.243 228.839 232.475V233.926C228.839 235.139 229.376 235.775 230.39 235.775C231.404 235.775 232.02 235.139 232.02 233.926H231.921Z" fill="white"/>
<path d="M242.476 230.885H236.513V228.221H245.26V230.766L240.707 246.788H237.725L242.476 230.885Z" fill="white"/>
<path d="M252.774 232.197H255.398L257.386 244.562H255.398L255.04 242.117H252.833L252.476 244.522H250.667L252.774 232.197ZM254.881 240.467L254.026 234.364L253.171 240.467H254.881Z" fill="white"/>
<path d="M258.201 241.779V235.139C258.201 234.38 258.502 233.652 259.039 233.115C259.576 232.578 260.304 232.276 261.063 232.276C261.823 232.276 262.551 232.578 263.088 233.115C263.624 233.652 263.926 234.38 263.926 235.139V236.451H262.077V235.02C262.077 234.205 261.7 233.867 261.103 233.867C260.507 233.867 260.129 234.205 260.129 235.02V241.779C260.129 242.594 260.527 242.912 261.103 242.912C261.68 242.912 262.077 242.594 262.077 241.779V239.89H263.926V241.779C263.926 242.538 263.624 243.266 263.088 243.803C262.551 244.34 261.823 244.641 261.063 244.641C260.304 244.641 259.576 244.34 259.039 243.803C258.502 243.266 258.201 242.538 258.201 241.779Z" fill="white"/>
<path d="M266.61 233.966H264.622V232.197H270.585V233.966H268.598V244.562H266.61V233.966Z" fill="white"/>
<path d="M271.52 232.197H273.508V244.562H271.52V232.197Z" fill="white"/>
<path d="M274.402 232.197H276.39L277.742 241.779L279.014 232.177H280.783L278.915 244.542H276.331L274.402 232.197Z" fill="white"/>
<path d="M281.718 232.197H287.006V233.966H283.706V237.226H286.389V238.996H283.706V242.792H287.065V244.562H281.718V232.197Z" fill="white"/>
<path d="M290.802 241.779V235.139C290.802 234.38 291.104 233.652 291.641 233.115C292.178 232.578 292.906 232.276 293.665 232.276C294.424 232.276 295.152 232.578 295.689 233.115C296.226 233.652 296.528 234.38 296.528 235.139V236.451H294.679V235.02C294.679 234.205 294.301 233.867 293.705 233.867C293.108 233.867 292.731 234.205 292.731 235.02V241.779C292.731 242.594 293.128 242.912 293.705 242.912C294.281 242.912 294.679 242.594 294.679 241.779V239.89H296.528V241.779C296.528 242.538 296.226 243.266 295.689 243.803C295.152 244.34 294.424 244.641 293.665 244.641C292.906 244.641 292.178 244.34 291.641 243.803C291.104 243.266 290.802 242.538 290.802 241.779Z" fill="white"/>
<path d="M299.191 232.197H301.815L303.803 244.562H301.815L301.458 242.117H299.251L298.893 244.522H297.104L299.191 232.197ZM301.318 240.467L300.444 234.364L299.609 240.467H301.318Z" fill="white"/>
<path d="M304.777 232.197H306.765V242.792H309.966V244.562H304.777V232.197Z" fill="white"/>
<path d="M215.52 272.154C215.493 270.917 215.74 269.69 216.241 268.56C216.743 267.429 217.488 266.423 218.423 265.614C220.649 263.268 221.285 261.856 221.285 260.127C221.285 258.398 220.709 258.02 219.774 258.02C218.84 258.02 218.264 258.517 218.264 259.849V261.837H215.52V260.028C215.52 257.066 216.991 255.356 219.854 255.356C220.471 255.287 221.095 255.363 221.677 255.578C222.259 255.794 222.783 256.142 223.206 256.596C223.629 257.051 223.94 257.597 224.114 258.193C224.288 258.789 224.32 259.417 224.208 260.028C224.208 262.234 223.313 264.182 220.609 267.045C218.86 268.914 218.403 269.828 218.403 271.021V271.597H223.949V274.241H215.52V272.154Z" fill="white"/>
<path d="M226.056 269.788V260.028C226.016 259.422 226.1 258.814 226.304 258.242C226.508 257.67 226.827 257.146 227.242 256.703C227.656 256.26 228.158 255.906 228.715 255.664C229.272 255.423 229.872 255.298 230.479 255.298C231.087 255.298 231.687 255.423 232.244 255.664C232.801 255.906 233.303 256.26 233.717 256.703C234.132 257.146 234.451 257.67 234.655 258.242C234.859 258.814 234.943 259.422 234.902 260.028V269.788C234.943 270.394 234.859 271.002 234.655 271.574C234.451 272.145 234.132 272.669 233.717 273.113C233.303 273.556 232.801 273.91 232.244 274.152C231.687 274.393 231.087 274.518 230.479 274.518C229.872 274.518 229.272 274.393 228.715 274.152C228.158 273.91 227.656 273.556 227.242 273.113C226.827 272.669 226.508 272.145 226.304 271.574C226.1 271.002 226.016 270.394 226.056 269.788ZM232.02 269.967V259.849C232.02 258.517 231.424 258.02 230.509 258.02C229.595 258.02 228.998 258.517 228.998 259.849V269.967C228.998 271.299 229.575 271.796 230.509 271.796C231.444 271.796 231.901 271.299 231.901 269.967H232.02Z" fill="white"/>
<path d="M241.661 270.822H236.095V268.158L241.383 255.634H244.564V268.158H245.955V270.822H244.564V274.182H241.661V270.822ZM241.661 268.158V260.922L238.799 268.158H241.661Z" fill="white"/>
<path d="M252.794 261.36H250.806V259.67H256.77V261.419H254.782V272.035H252.794V261.36Z" fill="white"/>
<path d="M257.485 269.033V262.532C257.485 261.742 257.799 260.983 258.358 260.424C258.918 259.865 259.676 259.551 260.467 259.551C261.258 259.551 262.016 259.865 262.575 260.424C263.135 260.983 263.449 261.742 263.449 262.532V269.033C263.449 269.824 263.135 270.582 262.575 271.141C262.016 271.701 261.258 272.015 260.467 272.015C259.676 272.015 258.918 271.701 258.358 271.141C257.799 270.582 257.485 269.824 257.485 269.033ZM261.461 269.152V262.413C261.461 261.519 261.083 261.2 260.467 261.2C259.851 261.2 259.453 261.519 259.453 262.413V269.152C259.453 270.047 259.831 270.385 260.467 270.385C261.103 270.385 261.441 270.047 261.441 269.152H261.461Z" fill="white"/>
<path d="M266.152 261.36H264.164V259.67H270.128V261.419H268.14V272.035H266.152V261.36Z" fill="white"/>
<path d="M271.778 259.67H274.402L276.39 272.035H274.402L274.044 269.57H271.838L271.48 271.995H269.79L271.778 259.67ZM273.885 267.92L273.031 261.817L272.176 267.92H273.885Z" fill="white"/>
<path d="M277.344 259.67H279.332V270.265H282.513V272.035H277.344V259.67Z" fill="white"/>
<path d="M286.131 269.112V262.453C286.131 261.694 286.432 260.966 286.969 260.429C287.506 259.892 288.234 259.59 288.993 259.59C289.753 259.59 290.481 259.892 291.018 260.429C291.554 260.966 291.856 261.694 291.856 262.453V263.765H290.007V262.334C290.007 261.519 289.63 261.2 289.033 261.2C288.437 261.2 288.079 261.519 288.079 262.334V269.252C288.079 270.067 288.457 270.385 289.033 270.385C289.61 270.385 290.007 270.067 290.007 269.252V267.363H291.856V269.112C291.856 269.872 291.554 270.6 291.018 271.137C290.481 271.673 289.753 271.975 288.993 271.975C288.234 271.975 287.506 271.673 286.969 271.137C286.432 270.6 286.131 269.872 286.131 269.112Z" fill="white"/>
<path d="M294.52 259.67H297.164L299.152 272.035H297.164L296.806 269.57H294.599L294.242 271.995H292.452L294.52 259.67ZM296.647 267.92L295.772 261.817L294.917 267.92H296.647Z" fill="white"/>
<path d="M300.106 259.67H302.094V270.265H305.294V272.035H300.146L300.106 259.67Z" fill="white"/>
<path d="M220.45 298.215H214.884V295.571L220.172 283.028H223.353V295.571H224.744V298.215H223.353V301.575H220.45V298.215ZM220.45 295.571V288.335L217.588 295.571H220.45Z" fill="white"/>
<path d="M226.056 297.182V287.5C226.016 286.895 226.1 286.287 226.304 285.715C226.508 285.143 226.827 284.619 227.242 284.176C227.656 283.732 228.158 283.379 228.715 283.137C229.272 282.895 229.872 282.771 230.479 282.771C231.087 282.771 231.687 282.895 232.244 283.137C232.801 283.379 233.303 283.732 233.717 284.176C234.132 284.619 234.451 285.143 234.655 285.715C234.859 286.287 234.943 286.895 234.902 287.5V297.261C234.943 297.867 234.859 298.475 234.655 299.046C234.451 299.618 234.132 300.142 233.717 300.586C233.303 301.029 232.801 301.383 232.244 301.624C231.687 301.866 231.087 301.991 230.479 301.991C229.872 301.991 229.272 301.866 228.715 301.624C228.158 301.383 227.656 301.029 227.242 300.586C226.827 300.142 226.508 299.618 226.304 299.046C226.1 298.475 226.016 297.867 226.056 297.261V297.182ZM232.02 297.361V287.242C232.02 285.91 231.424 285.413 230.509 285.413C229.595 285.413 228.998 285.91 228.998 287.242V297.44C228.998 298.772 229.575 299.269 230.509 299.269C231.444 299.269 231.901 298.692 231.901 297.44L232.02 297.361Z" fill="white"/>
<path d="M240.667 287.004H242.655V297.599H245.856V299.428H240.727L240.667 287.004Z" fill="white"/>
<path d="M248.321 287.004H250.945L252.933 299.368H250.945L250.587 296.903H248.381L248.023 299.329H246.214L248.321 287.004ZM250.428 295.273L249.573 289.15L248.718 295.273H250.428Z" fill="white"/>
<path d="M253.887 287.004H256.75C258.737 287.004 259.632 288.077 259.632 290.065V291.277C259.632 293.265 258.678 294.339 256.75 294.339H255.875V299.428H253.887V287.004ZM256.75 292.57C257.366 292.57 257.704 292.291 257.704 291.397V289.926C257.704 289.051 257.366 288.773 256.75 288.773H255.875V292.57H256.75Z" fill="white"/>
<path d="M260.447 296.446V295.73H262.296V296.585C262.296 297.46 262.674 297.778 263.31 297.778C263.946 297.778 264.304 297.46 264.304 296.545C264.304 295.631 263.926 294.856 262.654 293.743C262.011 293.324 261.478 292.757 261.101 292.089C260.724 291.421 260.513 290.672 260.487 289.906C260.429 289.503 260.462 289.092 260.584 288.704C260.707 288.316 260.916 287.961 261.195 287.665C261.474 287.369 261.816 287.139 262.196 286.994C262.576 286.848 262.984 286.79 263.389 286.825C265.377 286.825 266.212 287.958 266.212 289.926V290.443H264.383V289.806C264.383 288.932 264.025 288.594 263.409 288.594C262.793 288.594 262.435 288.932 262.435 289.767C262.435 290.602 262.833 291.337 264.105 292.45C264.763 292.884 265.304 293.474 265.679 294.168C266.053 294.862 266.25 295.638 266.252 296.426C266.313 296.836 266.281 297.254 266.158 297.649C266.035 298.044 265.824 298.407 265.541 298.709C265.258 299.011 264.91 299.245 264.524 299.394C264.137 299.542 263.722 299.602 263.31 299.567C261.401 299.547 260.447 298.414 260.447 296.446Z" fill="white"/>
<path d="M313.524 189.099C312.9 189.104 312.286 189.261 311.735 189.556C311.95 188.984 312.065 188.379 312.073 187.767C312.073 186.375 311.52 185.04 310.536 184.056C309.552 183.072 308.217 182.519 306.825 182.519C305.433 182.519 304.098 183.072 303.114 184.056C302.13 185.04 301.577 186.375 301.577 187.767C301.576 188.399 301.69 189.026 301.915 189.616C301.348 189.283 300.704 189.105 300.046 189.099C299.518 189.061 298.987 189.132 298.488 189.308C297.988 189.485 297.53 189.762 297.142 190.123C296.754 190.483 296.445 190.92 296.234 191.406C296.022 191.892 295.913 192.416 295.913 192.946C295.913 193.475 296.022 194 296.234 194.485C296.445 194.971 296.754 195.408 297.142 195.769C297.53 196.13 297.988 196.407 298.488 196.583C298.987 196.759 299.518 196.83 300.046 196.792H313.524C314.497 196.722 315.406 196.287 316.071 195.573C316.735 194.859 317.104 193.921 317.104 192.946C317.104 191.971 316.735 191.032 316.071 190.318C315.406 189.605 314.497 189.169 313.524 189.099Z" stroke="white" stroke-linecap="round" stroke-linejoin="round"/>
<path d="M318.613 185.103C319.601 185.103 320.402 184.302 320.402 183.314C320.402 182.326 319.601 181.525 318.613 181.525C317.625 181.525 316.824 182.326 316.824 183.314C316.824 184.302 317.625 185.103 318.613 185.103Z" stroke="white" stroke-linecap="round" stroke-linejoin="round"/>
<path d="M318.613 186.893V189" stroke="white" stroke-linecap="round" stroke-linejoin="round"/>
<path d="M318.613 177.629V179.756" stroke="white" stroke-linecap="round" stroke-linejoin="round"/>
<path d="M315.035 183.314H312.928" stroke="white" stroke-linecap="round" stroke-linejoin="round"/>
<path d="M324.299 183.314H322.172" stroke="white" stroke-linecap="round" stroke-linejoin="round"/>
<path d="M316.089 185.839L314.598 187.33" stroke="white" stroke-linecap="round" stroke-linejoin="round"/>
<path d="M322.629 179.299L321.138 180.79" stroke="white" stroke-linecap="round" stroke-linejoin="round"/>
<path d="M316.089 180.79L314.598 179.299" stroke="white" stroke-linecap="round" stroke-linejoin="round"/>
<path d="M322.629 187.33L321.138 185.839" stroke="white" stroke-linecap="round" stroke-linejoin="round"/>
<path d="M175.06 127.224H182.156L187.88 138.889L189.822 127.224H206.095C208.233 127.224 210.283 126.374 211.794 124.863C213.306 123.351 214.155 121.301 214.155 119.163V77.0602C214.155 74.9225 213.306 72.8723 211.794 71.3608C210.283 69.8492 208.233 69 206.095 69H175.06C172.923 69.0034 170.875 69.8536 169.364 71.3645C167.854 72.8753 167.003 74.9235 167 77.0602V119.163C167.003 121.3 167.854 123.348 169.364 124.859C170.875 126.37 172.923 127.22 175.06 127.224Z" fill="white" stroke="#263238" stroke-linecap="round" stroke-linejoin="round"/>
<path d="M206.945 87.2147H172.077V113.87H206.945V87.2147Z" fill="#109E39" stroke="#263238" stroke-linecap="round" stroke-linejoin="round"/>
<path d="M194.354 102.028L206.933 113.87H172.077L184.821 101.888" stroke="#263238" stroke-linecap="round" stroke-linejoin="round"/>
<path d="M189.505 103.627L172.077 87.2147H206.933L189.505 103.627Z" fill="#109E39" stroke="#263238" stroke-linecap="round" stroke-linejoin="round"/>
<path d="M206.362 81.6678H200.815C199.344 81.6678 197.933 82.2522 196.892 83.2924C195.852 84.3327 195.268 85.7436 195.268 87.2147C195.268 88.6858 195.852 90.0967 196.892 91.137C197.933 92.1772 199.344 92.7616 200.815 92.7616H206.362C207.833 92.7616 209.244 92.1772 210.284 91.137C211.324 90.0967 211.908 88.6858 211.908 87.2147C211.908 85.7436 211.324 84.3327 210.284 83.2924C209.244 82.2522 207.833 81.6678 206.362 81.6678Z" fill="#263238" stroke="#263238" stroke-linecap="round" stroke-linejoin="round"/>
<path d="M200.7 84.8918H199.304V83.9145C200.485 83.9145 200.903 83.6606 201.221 82.7975H202.147V91.6827H200.7V84.8918Z" fill="white"/>
<path d="M203.709 89.5376V84.8919C203.709 84.333 203.931 83.7971 204.326 83.4019C204.721 83.0068 205.257 82.7848 205.816 82.7848C206.375 82.7848 206.91 83.0068 207.306 83.4019C207.701 83.7971 207.923 84.333 207.923 84.8919V89.5376C207.923 90.0964 207.701 90.6323 207.306 91.0275C206.91 91.4226 206.375 91.6446 205.816 91.6446C205.257 91.6446 204.721 91.4226 204.326 91.0275C203.931 90.6323 203.709 90.0964 203.709 89.5376ZM206.527 89.6264V84.803C206.527 84.1683 206.26 83.9399 205.816 83.9399C205.371 83.9399 205.092 84.1683 205.092 84.803V89.6264C205.092 90.2611 205.371 90.5022 205.816 90.5022C206.26 90.5022 206.527 90.2611 206.527 89.6264Z" fill="white"/>
<path d="M190.732 356.826H181.707L184.309 342L171.933 356.826H151.243C148.528 356.829 145.924 357.909 144.004 359.83C142.084 361.75 141.003 364.353 141 367.069V420.622C141.003 423.337 142.084 425.941 144.004 427.861C145.924 429.781 148.528 430.862 151.243 430.865H190.719C193.437 430.865 196.044 429.786 197.967 427.865C199.89 425.945 200.972 423.339 200.975 420.622V367.069C200.972 364.353 199.892 361.75 197.971 359.83C196.051 357.909 193.448 356.829 190.732 356.826Z" fill="white" stroke="#263238" stroke-linecap="round" stroke-linejoin="round"/>
<path d="M154.163 390.869C150.266 387.061 148.578 382.847 148.578 379.089C148.578 372.743 152.843 368.414 159.316 368.414C165.358 368.414 167.427 371.207 170.956 375.256C174.497 371.207 176.554 368.414 182.596 368.414C189.069 368.414 193.347 372.692 193.347 379.089C193.347 382.897 191.646 387.035 187.749 390.869L172.885 405.72C172.636 405.971 172.34 406.171 172.013 406.308C171.686 406.444 171.335 406.514 170.981 406.514C170.627 406.514 170.277 406.444 169.95 406.308C169.623 406.171 169.326 405.971 169.077 405.72L154.163 390.869Z" fill="#109E39" stroke="#263238" stroke-miterlimit="10"/>
<path d="M154.95 386.782H162.566L166.602 375.383L174.675 398.167L178.711 386.782H187.038" stroke="#263238" stroke-linecap="round" stroke-linejoin="round"/>
<path d="M155.559 420.647V419.644C155.507 419.189 155.59 418.728 155.797 418.32C156.005 417.911 156.328 417.573 156.727 417.347C156.345 417.126 156.037 416.797 155.84 416.402C155.644 416.007 155.568 415.563 155.623 415.125V414.668C155.623 413.951 155.907 413.264 156.414 412.757C156.921 412.25 157.609 411.965 158.326 411.965C159.043 411.965 159.731 412.25 160.238 412.757C160.745 413.264 161.03 413.951 161.03 414.668V415.125C161.077 415.561 161 416.001 160.807 416.395C160.613 416.788 160.312 417.118 159.938 417.347C160.333 417.576 160.653 417.915 160.858 418.323C161.063 418.731 161.145 419.19 161.093 419.644V420.647C161.093 421.381 160.802 422.085 160.283 422.604C159.764 423.122 159.06 423.414 158.326 423.414C157.592 423.414 156.888 423.122 156.37 422.604C155.851 422.085 155.559 421.381 155.559 420.647ZM159.367 420.545V419.466C159.367 418.616 159.037 418.197 158.377 418.197C157.717 418.197 157.387 418.616 157.387 419.466V420.545C157.387 421.396 157.717 421.815 158.377 421.815C159.037 421.815 159.316 421.396 159.316 420.545H159.367ZM159.304 415.468V414.592C159.304 413.856 158.986 413.463 158.377 413.463C157.768 413.463 157.45 413.856 157.45 414.592V415.468C157.45 416.217 157.768 416.598 158.377 416.598C158.986 416.598 159.24 416.255 159.24 415.468H159.304Z" fill="#263238"/>
<path d="M165.65 413.628H162.083V412.016H167.389V413.564L164.622 423.262H162.82L165.65 413.628Z" fill="#263238"/>
<path d="M170.981 414.529H172.822C174.091 414.529 174.612 415.113 174.612 416.306V416.61C174.612 417.41 174.37 417.88 173.837 418.134C174.485 418.362 174.738 418.933 174.738 419.746V420.418C174.77 420.667 174.744 420.92 174.662 421.156C174.58 421.393 174.445 421.608 174.268 421.785C174.09 421.962 173.874 422.095 173.636 422.175C173.399 422.255 173.146 422.279 172.898 422.246H170.981V414.529ZM172.669 417.677C173.126 417.677 173.406 417.474 173.406 416.864V416.433C173.406 415.874 173.215 415.633 172.784 415.633H172.2V417.677H172.669ZM172.898 421.155C173.304 421.155 173.52 420.964 173.52 420.393V419.72C173.52 418.997 173.291 418.781 172.746 418.781H172.2V421.155H172.898Z" fill="#263238"/>
<path d="M175.449 414.529H177.239C178.445 414.529 179.041 415.202 179.041 416.445V417.207C179.041 418.476 178.445 419.111 177.239 419.111H176.655V422.259H175.449V414.529ZM177.239 418.007C177.62 418.007 177.836 417.829 177.836 417.283V416.357C177.836 415.811 177.62 415.633 177.239 415.633H176.655V418.007H177.239Z" fill="#263238"/>
<path d="M179.701 414.529H181.44L182.215 420.063L182.976 414.529H184.715V422.259H183.573V416.407L182.684 422.259H181.669L180.793 416.407V422.259H179.727L179.701 414.529Z" fill="#263238"/>
<path d="M31.0021 186.96H134.822C136.184 186.993 137.481 187.548 138.445 188.51C139.409 189.472 139.967 190.768 140.002 192.13V217.13L169.362 217.31L140.002 232.49V302.17C139.98 302.828 139.829 303.474 139.556 304.073C139.284 304.672 138.896 305.212 138.415 305.66C137.934 306.109 137.368 306.458 136.752 306.688C136.135 306.918 135.48 307.024 134.822 307H30.8221C30.1838 307.017 29.5488 306.903 28.9558 306.666C28.3629 306.429 27.8245 306.074 27.3734 305.622C26.9224 305.17 26.5682 304.63 26.3324 304.037C26.0966 303.444 25.9842 302.808 26.0021 302.17V192.17C25.9562 190.845 26.4381 189.557 27.342 188.587C28.2458 187.618 29.4975 187.047 30.8221 187M30.8221 185C28.9672 185.047 27.2069 185.829 25.928 187.173C24.6492 188.518 23.9565 190.315 24.0021 192.17V302.17C23.9859 303.071 24.1511 303.965 24.488 304.8C24.8249 305.636 25.3264 306.395 25.9629 307.032C26.5993 307.669 27.3575 308.172 28.1924 308.51C29.0272 308.848 29.9215 309.015 30.8221 309H134.822C135.742 309.024 136.658 308.866 137.517 308.536C138.376 308.205 139.162 307.709 139.829 307.074C140.496 306.44 141.031 305.68 141.404 304.839C141.777 303.997 141.98 303.09 142.002 302.17V233.47L170.522 218.9L174.952 215.38L169.292 215.32L142.002 215.17V192.17C141.966 190.278 141.198 188.474 139.859 187.136C138.52 185.799 136.714 185.033 134.822 185H30.8221Z" fill="#109E39"/>
<path opacity="0.6" d="M31.0021 186.96H134.822C136.184 186.993 137.481 187.548 138.445 188.51C139.409 189.472 139.967 190.768 140.002 192.13V217.13L169.362 217.31L140.002 232.49V302.17C139.98 302.828 139.829 303.474 139.556 304.073C139.284 304.672 138.896 305.212 138.415 305.66C137.934 306.109 137.368 306.458 136.752 306.688C136.135 306.918 135.48 307.024 134.822 307H30.8221C30.1838 307.017 29.5488 306.903 28.9558 306.666C28.3629 306.429 27.8245 306.074 27.3734 305.622C26.9224 305.17 26.5682 304.63 26.3324 304.037C26.0966 303.444 25.9842 302.808 26.0021 302.17V192.17C25.9562 190.845 26.4381 189.557 27.342 188.587C28.2458 187.618 29.4975 187.047 30.8221 187M30.8221 185C28.9672 185.047 27.2069 185.829 25.928 187.173C24.6492 188.518 23.9565 190.315 24.0021 192.17V302.17C23.9859 303.071 24.1511 303.965 24.488 304.8C24.8249 305.636 25.3264 306.395 25.9629 307.032C26.5993 307.669 27.3575 308.172 28.1924 308.51C29.0272 308.848 29.9215 309.015 30.8221 309H134.822C135.742 309.024 136.658 308.866 137.517 308.536C138.376 308.205 139.162 307.709 139.829 307.074C140.496 306.44 141.031 305.68 141.404 304.839C141.777 303.997 141.98 303.09 142.002 302.17V233.47L170.522 218.9L174.952 215.38L169.292 215.32L142.002 215.17V192.17C141.966 190.278 141.198 188.474 139.859 187.136C138.52 185.799 136.714 185.033 134.822 185H30.8221Z" fill="white"/>
<path d="M26.0021 192.17V302.17C25.9856 302.807 26.099 303.442 26.3354 304.034C26.5718 304.626 26.9262 305.164 27.3771 305.615C27.828 306.066 28.366 306.42 28.9582 306.657C29.5505 306.893 30.1847 307.007 30.8221 306.99H134.822C135.479 307.014 136.134 306.908 136.75 306.679C137.366 306.45 137.93 306.101 138.411 305.654C138.892 305.206 139.281 304.668 139.553 304.07C139.826 303.472 139.979 302.827 140.002 302.17V232.46L169.362 217.29L140.002 217.11V192.17C139.969 190.807 139.413 189.508 138.448 188.544C137.484 187.579 136.186 187.023 134.822 186.99H30.8221C30.1654 187.013 29.5196 187.166 28.9219 187.439C28.3241 187.712 27.786 188.1 27.3383 188.581C26.8907 189.062 26.5422 189.627 26.313 190.242C26.0837 190.858 25.9781 191.513 26.0021 192.17Z" fill="#263238"/>
<path d="M64.8021 289.31L51.3121 258.77H36.6321V257.77H51.9621L64.1521 285.38L68.6121 236.48L79.7321 271.8L87.5521 245.48L97.0421 267.67L104.462 247.46L112.772 266.24L117.692 255.72H132.632V256.72H118.332L112.742 268.65L104.552 250.12L97.1121 270.37L87.7221 248.42L79.7621 275.22L69.1521 241.54L64.8021 289.31Z" fill="#F5F5F5"/>
<path d="M47.8921 225.27C47.8921 227.21 46.3121 228.42 44.3121 228.42C41.7021 228.42 40.0821 226.79 40.0821 223.73C40.0821 220.47 42.0821 218.64 44.9021 218.64C45.8215 218.614 46.7306 218.839 47.5321 219.29L46.7221 220.9C46.196 220.57 45.5827 220.406 44.9621 220.43C44.5998 220.407 44.2368 220.462 43.8981 220.593C43.5594 220.723 43.253 220.926 43.0001 221.186C42.7473 221.447 42.5539 221.759 42.4334 222.102C42.3129 222.444 42.2681 222.809 42.3021 223.17C42.6136 222.88 42.9806 222.656 43.3811 222.511C43.7816 222.367 44.2071 222.305 44.6321 222.33C45.0424 222.294 45.4556 222.343 45.8461 222.474C46.2365 222.605 46.5959 222.815 46.9017 223.091C47.2075 223.367 47.4533 223.702 47.6237 224.077C47.7941 224.452 47.8854 224.858 47.8921 225.27ZM45.7721 225.38C45.7723 225.177 45.7292 224.976 45.6458 224.791C45.5623 224.606 45.4403 224.441 45.288 224.306C45.1357 224.172 44.9565 224.071 44.7624 224.012C44.5682 223.952 44.3636 223.934 44.1621 223.96C43.96 223.939 43.7558 223.96 43.562 224.021C43.3683 224.083 43.1891 224.183 43.0355 224.316C42.8819 224.449 42.7571 224.612 42.6688 224.795C42.5805 224.978 42.5306 225.177 42.5221 225.38C42.5221 226.19 43.1321 226.79 44.1921 226.79C44.3892 226.81 44.5881 226.788 44.7762 226.726C44.9643 226.664 45.1374 226.563 45.2843 226.43C45.4312 226.298 45.5487 226.136 45.6293 225.955C45.7098 225.774 45.7517 225.578 45.7521 225.38H45.7721Z" fill="white"/>
<path d="M48.6621 223.53C48.6621 220.41 50.3921 218.64 52.6621 218.64C54.9321 218.64 56.7121 220.41 56.7121 223.53C56.7121 226.65 55.0021 228.42 52.6621 228.42C50.3221 228.42 48.6621 226.65 48.6621 223.53ZM54.5621 223.53C54.5621 221.39 53.8121 220.53 52.7121 220.53C51.6121 220.53 50.8821 221.43 50.8821 223.53C50.8821 225.63 51.6321 226.53 52.7121 226.53C53.7921 226.53 54.5621 225.68 54.5621 223.53Z" fill="white"/>
<path d="M116.892 225.52C116.892 227.3 115.302 228.42 112.892 228.42C110.482 228.42 108.892 227.3 108.892 225.52C108.888 225.05 109.021 224.588 109.275 224.192C109.529 223.796 109.893 223.482 110.322 223.29C109.974 223.09 109.688 222.797 109.495 222.444C109.303 222.091 109.212 221.691 109.232 221.29C109.232 219.63 110.722 218.59 112.862 218.59C115.002 218.59 116.522 219.59 116.522 221.29C116.54 221.692 116.447 222.092 116.253 222.445C116.059 222.797 115.772 223.09 115.422 223.29C115.86 223.475 116.233 223.786 116.494 224.183C116.756 224.58 116.894 225.045 116.892 225.52ZM114.682 225.45C114.682 224.61 113.992 224.1 112.892 224.1C111.792 224.1 111.142 224.61 111.142 225.45C111.142 226.29 111.812 226.81 112.892 226.81C113.972 226.81 114.632 226.29 114.632 225.45H114.682ZM111.432 221.45C111.432 222.16 112.002 222.61 112.892 222.61C113.782 222.61 114.382 222.16 114.382 221.45C114.382 220.74 113.782 220.26 112.892 220.26C112.002 220.26 111.382 220.7 111.382 221.44L111.432 221.45Z" fill="white"/>
<path d="M126.502 226.27H124.962V228.27H122.822V226.27H117.732V224.8L122.192 218.8H124.482L120.352 224.48H122.892V222.71H124.962V224.48H126.502V226.27Z" fill="white"/>
<path d="M76.4421 230.67H73.8921C76.5091 233.131 79.3033 235.398 82.2521 237.45L84.2521 238.94H84.3021L86.3021 237.27C88.8301 235.203 91.1908 232.939 93.3621 230.5H89.5521L87.8521 224.77L85.4021 235.77L83.0521 230.17L81.6121 233.31L79.8921 227.86L78.0021 233.23L76.4421 230.67Z" fill="#109E39"/>
<path d="M73.3221 228.89H76.7621L77.8521 230.67L79.9121 224.79L81.7121 230.52L83.0721 227.52L85.2221 232.67L87.7721 221.27L89.9721 228.76H93.8221C96.1721 225.7 96.9621 222.7 93.8921 220.04C90.0621 216.71 85.6521 219.84 83.4121 221.87C81.0521 219.99 75.8921 216.17 71.8921 221.17C69.8921 223.69 71.1121 226.41 73.3221 228.89Z" fill="#109E39"/>
<g opacity="0.6">
<path d="M76.4421 230.67H73.8921C76.5091 233.131 79.3033 235.398 82.2521 237.45L84.2521 238.94H84.3021L86.3021 237.27C88.8301 235.203 91.1908 232.939 93.3621 230.5H89.5521L87.8521 224.77L85.4021 235.77L83.0521 230.17L81.6121 233.31L79.8921 227.86L78.0021 233.23L76.4421 230.67Z" fill="#109E39"/>
<path d="M73.3221 228.89H76.7621L77.8521 230.67L79.9121 224.79L81.7121 230.52L83.0721 227.52L85.2221 232.67L87.7721 221.27L89.9721 228.76H93.8221C96.1721 225.7 96.9621 222.7 93.8921 220.04C90.0621 216.71 85.6521 219.84 83.4121 221.87C81.0521 219.99 75.8921 216.17 71.8921 221.17C69.8921 223.69 71.1121 226.41 73.3221 228.89Z" fill="#109E39"/>
</g>
<path d="M47.4421 236.4V239.02H46.8321V236.46C46.8321 235.46 46.3521 235.01 45.5321 235.01C45.3201 235.001 45.1087 235.039 44.9126 235.12C44.7165 235.201 44.5405 235.324 44.3968 235.48C44.253 235.636 44.145 235.821 44.0803 236.024C44.0156 236.226 43.9958 236.439 44.0221 236.65V239.02H43.4121V236.46C43.4121 235.46 42.9321 235.01 42.1021 235.01C41.8901 235.001 41.6787 235.039 41.4826 235.12C41.2865 235.201 41.1105 235.324 40.9668 235.48C40.823 235.636 40.715 235.821 40.6503 236.024C40.5856 236.226 40.5658 236.439 40.5921 236.65V239.02H39.9821V234.5H40.5621V235.32C40.736 235.041 40.9819 234.813 41.274 234.662C41.5661 234.511 41.8937 234.441 42.2221 234.46C42.5612 234.438 42.8987 234.523 43.1874 234.702C43.4761 234.881 43.7015 235.146 43.8321 235.46C44.0125 235.147 44.2741 234.889 44.5892 234.713C44.9044 234.537 45.2613 234.45 45.6221 234.46C45.8765 234.441 46.1318 234.48 46.3694 234.572C46.607 234.665 46.8209 234.809 46.9954 234.995C47.1699 235.181 47.3006 235.404 47.3779 235.647C47.4552 235.89 47.4771 236.147 47.4421 236.4Z" fill="white"/>
<path d="M48.9621 233.07C48.9634 233.012 48.9761 232.955 48.9994 232.902C49.0227 232.849 49.0562 232.802 49.098 232.762C49.1398 232.722 49.1891 232.691 49.243 232.67C49.2969 232.649 49.3543 232.639 49.4121 232.64C49.5272 232.637 49.6387 232.68 49.7228 232.758C49.8069 232.837 49.8569 232.945 49.8621 233.06C49.8621 233.179 49.8147 233.294 49.7303 233.378C49.6459 233.463 49.5315 233.51 49.4121 233.51C49.2928 233.51 49.1783 233.463 49.0939 233.378C49.0095 233.294 48.9621 233.179 48.9621 233.06V233.07ZM49.1021 234.5H49.7121V239.02H49.1021V234.5Z" fill="white"/>
<path d="M55.5821 236.4V239.02H54.9721V236.46C54.9998 236.271 54.9845 236.078 54.9274 235.896C54.8702 235.713 54.7726 235.546 54.6419 235.407C54.5111 235.268 54.3507 235.16 54.1724 235.091C53.9941 235.022 53.8026 234.994 53.6121 235.01C53.3957 234.996 53.1789 235.029 52.9766 235.107C52.7744 235.185 52.5916 235.307 52.4412 235.463C52.2907 235.619 52.1762 235.806 52.1055 236.011C52.0349 236.216 52.0098 236.434 52.0321 236.65V239.02H51.4221V234.5H52.0021V235.33C52.1859 235.046 52.4421 234.815 52.7443 234.662C53.0466 234.509 53.384 234.439 53.7221 234.46C53.9783 234.44 54.2357 234.478 54.4757 234.57C54.7157 234.662 54.9324 234.805 55.1102 234.991C55.2881 235.176 55.4226 235.399 55.5042 235.642C55.5858 235.886 55.6124 236.145 55.5821 236.4Z" fill="white"/>
<path d="M114.042 236.61C114.042 237.49 113.392 237.99 112.042 237.99H109.672V232.82H111.902C113.052 232.82 113.712 233.31 113.712 234.15C113.721 234.403 113.649 234.653 113.507 234.863C113.365 235.074 113.161 235.233 112.922 235.32C113.239 235.35 113.531 235.501 113.74 235.741C113.948 235.981 114.056 236.292 114.042 236.61ZM110.262 233.27V235.17H111.892C112.722 235.17 113.202 234.85 113.202 234.23C113.202 233.61 112.722 233.29 111.892 233.29L110.262 233.27ZM113.492 236.57C113.492 235.89 112.992 235.57 112.092 235.57H110.262V237.51H112.092C112.992 237.54 113.492 237.24 113.492 236.57Z" fill="white"/>
<path d="M119.332 234.59C119.332 235.69 118.532 236.36 117.222 236.36H115.832V237.99H115.282V232.82H117.222C118.532 232.82 119.332 233.49 119.332 234.59ZM118.792 234.59C118.792 233.77 118.242 233.29 117.202 233.29H115.832V235.88H117.202C118.242 235.88 118.792 235.41 118.792 234.59Z" fill="white"/>
<path d="M125.892 232.82V237.99H125.372V233.85L123.372 237.33H123.112L121.112 233.88V237.99H120.582V232.82H121.032L123.282 236.65L125.502 232.82H125.892Z" fill="white"/>
<path d="M31.9 107.12C20.07 105.64 13 104 13 104C13 104 19.33 101.57 27.74 98.81C27.9789 97.4792 28.5645 96.2349 29.4376 95.2026C30.3108 94.1703 31.4407 93.3864 32.7134 92.9301C33.9862 92.4737 35.3567 92.361 36.6869 92.6033C38.0171 92.8455 39.2599 93.4342 40.29 94.31C40.8532 92.3643 41.9551 90.6175 43.4686 89.2713C44.9821 87.9251 46.8455 87.0344 48.8436 86.7019C50.8416 86.3694 52.893 86.6087 54.7609 87.3922C56.6288 88.1758 58.2371 89.4715 59.4 91.13H59.57C59.4426 90.3497 59.3757 89.5606 59.37 88.77C59.3835 84.9374 60.8501 81.2526 63.4739 78.4589C66.0976 75.6651 69.6833 73.9705 73.5075 73.7167C77.3317 73.4629 81.1098 74.669 84.0797 77.0915C87.0496 79.5141 88.9902 82.9728 89.51 86.77C90.2044 86.6289 90.9114 86.5586 91.62 86.56C94.465 86.5573 97.1948 87.6836 99.2102 89.6915C101.226 91.6995 102.362 94.425 102.37 97.27C102.37 97.34 102.37 97.4 102.37 97.46C108.37 99.1 124.65 103.64 123.5 103.88C89.35 110.99 57.75 109.88 37.17 107.73C36.5745 107.878 35.9636 107.955 35.35 107.96C34.1501 107.954 32.9685 107.666 31.9 107.12Z" fill="#F5F5F5"/>
</svg>
